<svg xmlns="http://www.w3.org/2000/svg" xmlns:xlink="http://www.w3.org/1999/xlink" width="40" zoomAndPan="magnify" viewBox="0 0 30 30.000001" height="40" preserveAspectRatio="xMidYMid meet" version="1.0"><defs><clipPath id="5e7ecc9c0b"><path d="M 3.242188 3.628906 L 26.546875 3.628906 L 26.546875 25.402344 L 3.242188 25.402344 Z M 3.242188 3.628906 " clip-rule="nonzero"/></clipPath><clipPath id="859f560b3f"><path d="M 4.695312 3.628906 L 25.054688 3.628906 C 25.859375 3.628906 26.507812 4.277344 26.507812 5.082031 L 26.507812 23.953125 C 26.507812 24.753906 25.859375 25.402344 25.054688 25.402344 L 4.695312 25.402344 C 3.890625 25.402344 3.242188 24.753906 3.242188 23.953125 L 3.242188 5.082031 C 3.242188 4.277344 3.890625 3.628906 4.695312 3.628906 Z M 4.695312 3.628906 " clip-rule="nonzero"/></clipPath><clipPath id="461747496f"><path d="M 7.558594 6.964844 L 22.800781 6.964844 L 22.800781 22.207031 L 7.558594 22.207031 Z M 7.558594 6.964844 " clip-rule="nonzero"/></clipPath></defs><g clip-path="url(#5e7ecc9c0b)"><g clip-path="url(#859f560b3f)"><path fill="#000000" d="M 3.242188 3.628906 L 26.546875 3.628906 L 26.546875 25.402344 L 3.242188 25.402344 Z M 3.242188 3.628906 " fill-opacity="1" fill-rule="nonzero"/></g></g><g clip-path="url(#461747496f)"><path fill="#d62828" d="M 13.890625 9.851562 C 14.066406 10.035156 14.242188 10.21875 14.414062 10.40625 C 14.4375 10.429688 14.460938 10.453125 14.46875 10.484375 C 14.472656 10.515625 14.464844 10.542969 14.464844 10.574219 C 14.464844 10.640625 14.515625 10.695312 14.5625 10.746094 C 14.621094 10.804688 14.679688 10.867188 14.738281 10.925781 C 14.777344 10.964844 14.816406 11.003906 14.828125 11.054688 C 14.851562 11.125 14.824219 11.199219 14.832031 11.273438 C 14.839844 11.324219 14.859375 11.367188 14.882812 11.414062 C 15.007812 11.675781 15.101562 11.957031 15.160156 12.242188 C 15.175781 12.308594 15.1875 12.386719 15.148438 12.445312 C 15.117188 12.496094 15.054688 12.523438 15.003906 12.558594 C 14.957031 12.597656 14.917969 12.667969 14.949219 12.71875 C 14.964844 12.742188 14.992188 12.753906 15.019531 12.765625 C 15.289062 12.878906 15.585938 12.917969 15.875 12.957031 C 15.925781 12.964844 15.980469 12.96875 16.03125 12.964844 C 16.121094 12.953125 16.207031 12.902344 16.257812 12.828125 C 16.472656 12.515625 16.777344 12.28125 17.144531 12.203125 C 17.605469 12.109375 18.09375 12.28125 18.554688 12.171875 C 18.746094 11.933594 19.011719 11.726562 19.300781 11.621094 C 19.503906 11.550781 19.730469 11.515625 19.929688 11.585938 C 19.980469 11.601562 20.03125 11.625 20.082031 11.628906 C 20.144531 11.632812 20.203125 11.605469 20.257812 11.578125 C 20.324219 11.550781 20.386719 11.519531 20.453125 11.492188 C 20.367188 11.09375 20.28125 10.660156 20.296875 10.257812 C 20.300781 10.152344 20.308594 10.050781 20.304688 9.949219 C 20.300781 9.890625 20.296875 9.835938 20.289062 9.777344 C 20.253906 9.539062 20.191406 9.304688 20.105469 9.078125 C 20.011719 8.828125 19.890625 8.589844 19.765625 8.355469 C 19.738281 8.300781 19.640625 8.289062 19.578125 8.292969 C 19.519531 8.296875 19.457031 8.316406 19.394531 8.320312 C 19.15625 8.34375 18.933594 8.175781 18.691406 8.15625 C 18.585938 8.148438 18.476562 8.167969 18.371094 8.1875 C 18.347656 8.191406 18.324219 8.195312 18.300781 8.183594 C 18.277344 8.175781 18.261719 8.152344 18.246094 8.128906 C 18.21875 8.082031 18.195312 8.035156 18.175781 7.984375 C 18.164062 7.953125 18.152344 7.914062 18.171875 7.886719 C 18.183594 7.875 18.199219 7.867188 18.210938 7.851562 C 18.234375 7.816406 18.210938 7.765625 18.21875 7.722656 C 18.222656 7.695312 18.238281 7.671875 18.253906 7.652344 C 18.339844 7.523438 18.40625 7.382812 18.457031 7.234375 C 18.476562 7.171875 18.492188 7.105469 18.535156 7.058594 C 18.601562 6.980469 18.714844 6.960938 18.8125 6.964844 C 19.023438 6.96875 19.230469 7.046875 19.386719 7.179688 C 19.429688 7.21875 19.46875 7.257812 19.511719 7.296875 C 19.546875 7.328125 19.585938 7.355469 19.625 7.386719 C 19.71875 7.453125 19.808594 7.523438 19.898438 7.59375 C 19.96875 7.644531 20.039062 7.699219 20.109375 7.75 C 20.199219 7.816406 20.285156 7.882812 20.382812 7.9375 C 20.554688 8.035156 20.589844 8.242188 20.6875 8.410156 C 20.75 8.515625 20.824219 8.585938 20.890625 8.683594 C 21.023438 8.863281 21.152344 9.042969 21.28125 9.222656 C 21.367188 9.34375 21.453125 9.464844 21.535156 9.585938 C 21.972656 10.25 22.273438 11 22.410156 11.78125 C 22.429688 11.875 22.378906 11.96875 22.328125 12.046875 C 22.273438 12.128906 22.199219 12.191406 22.128906 12.257812 C 21.769531 12.59375 21.449219 12.972656 21.09375 13.308594 C 20.734375 13.648438 20.324219 13.949219 19.851562 14.082031 C 19.425781 14.203125 18.953125 14.195312 18.589844 14.441406 C 18.113281 14.765625 18.277344 15.542969 18.0625 16.078125 C 17.964844 16.316406 17.835938 16.539062 17.757812 16.78125 C 17.613281 17.257812 17.511719 17.753906 17.300781 18.207031 C 17.226562 18.375 17.136719 18.535156 17.085938 18.714844 C 16.992188 19.0625 17.050781 19.433594 17.140625 19.78125 C 17.226562 20.132812 17.339844 20.480469 17.351562 20.839844 C 17.359375 21.257812 17.582031 21.652344 17.695312 22.054688 L 12.226562 22.054688 C 12.320312 21.765625 12.425781 21.503906 12.550781 21.222656 C 12.585938 21.140625 12.625 21.058594 12.644531 20.96875 C 12.660156 20.886719 12.660156 20.800781 12.664062 20.71875 C 12.695312 20.273438 12.917969 19.851562 12.871094 19.410156 C 12.855469 19.246094 12.878906 19.085938 12.828125 18.929688 C 12.773438 18.777344 12.691406 18.632812 12.609375 18.492188 C 12.40625 18.136719 12.199219 17.78125 11.9375 17.46875 C 11.867188 17.558594 11.789062 17.652344 11.71875 17.746094 C 11.648438 17.839844 11.578125 17.929688 11.503906 18.019531 C 11.203125 18.382812 10.835938 18.691406 10.414062 18.894531 C 10.167969 19.011719 9.910156 19.097656 9.679688 19.238281 C 9.570312 19.304688 9.464844 19.382812 9.347656 19.433594 C 9.214844 19.492188 9.066406 19.507812 8.921875 19.511719 C 8.695312 19.515625 8.453125 19.496094 8.261719 19.371094 C 8.1875 19.320312 8.15625 19.230469 8.117188 19.148438 C 8.0625 19.042969 8.011719 18.941406 7.957031 18.835938 C 7.910156 18.738281 7.859375 18.640625 7.816406 18.539062 C 7.699219 18.238281 7.652344 17.910156 7.621094 17.589844 C 7.597656 17.328125 7.578125 17.066406 7.570312 16.804688 C 7.5625 16.472656 7.703125 16.132812 7.730469 15.800781 C 7.75 15.535156 7.710938 15.257812 7.789062 15.003906 C 7.855469 14.800781 7.933594 14.585938 8.039062 14.402344 C 8.265625 14.015625 8.492188 13.632812 8.71875 13.246094 C 8.734375 13.21875 8.753906 13.191406 8.777344 13.171875 C 8.828125 13.128906 8.90625 13.128906 8.96875 13.148438 C 9.03125 13.171875 9.085938 13.210938 9.148438 13.242188 C 9.296875 13.316406 9.464844 13.347656 9.609375 13.433594 C 9.632812 13.449219 9.65625 13.464844 9.667969 13.488281 C 9.679688 13.511719 9.683594 13.542969 9.691406 13.570312 C 9.707031 13.628906 9.753906 13.671875 9.789062 13.722656 C 9.824219 13.773438 9.851562 13.839844 9.820312 13.894531 C 9.808594 13.914062 9.789062 13.933594 9.769531 13.949219 C 9.683594 14.019531 9.582031 14.078125 9.511719 14.167969 C 9.476562 14.21875 9.453125 14.273438 9.417969 14.320312 C 9.234375 14.578125 8.84375 14.632812 8.695312 14.910156 C 8.640625 15.015625 8.625 15.140625 8.625 15.257812 C 8.621094 15.5 8.65625 15.746094 8.726562 15.980469 C 8.777344 16.15625 8.894531 16.289062 8.988281 16.445312 C 9.035156 16.523438 9.082031 16.597656 9.136719 16.667969 C 9.179688 16.722656 9.226562 16.769531 9.261719 16.828125 C 9.308594 16.902344 9.339844 16.980469 9.371094 17.0625 C 9.425781 16.953125 9.457031 16.832031 9.496094 16.714844 C 9.550781 16.542969 9.664062 16.394531 9.796875 16.269531 C 9.929688 16.148438 10.082031 16.050781 10.234375 15.953125 C 10.230469 15.714844 10.34375 15.488281 10.449219 15.273438 C 10.519531 15.140625 10.589844 15.007812 10.679688 14.890625 C 11.066406 14.367188 11.757812 14.085938 12.398438 14.1875 C 12.449219 14.195312 12.511719 14.171875 12.550781 14.132812 C 12.695312 13.988281 12.839844 13.847656 12.984375 13.703125 C 13.03125 13.65625 13.078125 13.609375 13.113281 13.554688 C 13.183594 13.433594 13.1875 13.277344 13.144531 13.144531 C 13.105469 13.007812 13.03125 12.886719 12.953125 12.769531 C 12.902344 12.691406 12.847656 12.609375 12.773438 12.554688 C 12.726562 12.515625 12.671875 12.492188 12.617188 12.460938 C 12.414062 12.335938 12.257812 12.136719 12.03125 12.054688 C 11.726562 11.949219 11.496094 11.648438 11.382812 11.347656 C 11.335938 11.226562 11.320312 11.09375 11.332031 10.96875 C 11.339844 10.878906 11.359375 10.789062 11.378906 10.703125 C 11.410156 10.582031 11.4375 10.457031 11.46875 10.335938 C 11.480469 10.289062 11.492188 10.242188 11.511719 10.199219 C 11.554688 10.109375 11.636719 10.046875 11.710938 9.984375 C 11.882812 9.847656 12.054688 9.714844 12.246094 9.609375 C 12.4375 9.503906 12.644531 9.429688 12.863281 9.417969 C 12.96875 9.414062 13.074219 9.425781 13.179688 9.441406 C 13.316406 9.460938 13.449219 9.484375 13.574219 9.542969 C 13.695312 9.601562 13.800781 9.75 13.890625 9.851562 Z M 13.890625 9.851562 " fill-opacity="1" fill-rule="nonzero"/></g></svg>